<svg width="34" height="34" viewBox="0 0 34 34" fill="none" xmlns="http://www.w3.org/2000/svg">
<path d="M25.2036 32.2293H8.79864C4.91697 32.2293 1.77197 29.0701 1.77197 25.1885V14.691C1.77197 12.7643 2.96197 10.3418 4.49197 9.15179L12.1278 3.20179C14.4228 1.41679 18.092 1.33179 20.472 3.00346L29.227 9.13763C30.9128 10.3135 32.2303 12.8351 32.2303 14.8893V25.2026C32.2303 29.0701 29.0853 32.2293 25.2036 32.2293ZM13.4311 4.87346L5.79531 10.8235C4.78947 11.6168 3.89697 13.416 3.89697 14.691V25.1885C3.89697 27.8943 6.09281 30.1043 8.79864 30.1043H25.2036C27.9095 30.1043 30.1053 27.9085 30.1053 25.2026V14.8893C30.1053 13.5293 29.1278 11.6451 28.0086 10.8801L19.2536 4.74596C17.6386 3.61263 14.9753 3.66929 13.4311 4.87346Z" fill="#E6E6E6"/>
<path d="M17 26.5625C16.4192 26.5625 15.9375 26.0808 15.9375 25.5V21.25C15.9375 20.6692 16.4192 20.1875 17 20.1875C17.5808 20.1875 18.0625 20.6692 18.0625 21.25V25.5C18.0625 26.0808 17.5808 26.5625 17 26.5625Z" fill="#E6E6E6"/>
</svg>
