<svg width="34" height="35" viewBox="0 0 34 35" fill="none" xmlns="http://www.w3.org/2000/svg">
<path d="M14.1526 32.6332C13.3026 32.6332 12.4952 32.2083 11.9427 31.4574L10.2427 29.1907C10.2427 29.2049 10.1718 29.1624 10.1435 29.1624H9.61934C4.77434 29.1624 1.771 27.8449 1.771 21.3141V15.6474C1.771 9.68325 5.41184 8.12492 8.47185 7.85575C8.81185 7.81325 9.20851 7.79907 9.61934 7.79907H18.686C23.8143 7.79907 26.5343 10.5191 26.5343 15.6474V21.3141C26.5343 21.7249 26.5202 22.1216 26.4635 22.5041C26.2085 25.5216 24.6502 29.1624 18.686 29.1624H18.1193L16.3626 31.4574C15.8101 32.2083 15.0026 32.6332 14.1526 32.6332ZM9.61934 9.92407C9.29351 9.92407 8.98184 9.93824 8.68434 9.96657C5.39767 10.2499 3.896 12.0491 3.896 15.6474V21.3141C3.896 26.1733 5.39768 27.0374 9.61934 27.0374H10.186C10.8235 27.0374 11.546 27.3916 11.9427 27.9016L13.6427 30.1824C13.9543 30.6074 14.351 30.6074 14.6627 30.1824L16.3626 27.9158C16.7735 27.3633 17.4252 27.0374 18.1193 27.0374H18.686C22.2843 27.0374 24.0835 25.5216 24.3527 22.2916C24.3952 21.9516 24.4093 21.6399 24.4093 21.3141V15.6474C24.4093 11.6949 22.6385 9.92407 18.686 9.92407H9.61934Z" fill="#999999"/>
<path d="M14.1545 20.4639C13.3611 20.4639 12.7378 19.8264 12.7378 19.0473C12.7378 18.2681 13.3753 17.6306 14.1545 17.6306C14.9336 17.6306 15.5711 18.2681 15.5711 19.0473C15.5711 19.8264 14.9478 20.4639 14.1545 20.4639Z" fill="#999999"/>
<path d="M18.6862 20.4639C17.8929 20.4639 17.2695 19.8264 17.2695 19.0473C17.2695 18.2681 17.907 17.6306 18.6862 17.6306C19.4654 17.6306 20.1029 18.2681 20.1029 19.0473C20.1029 19.8264 19.4654 20.4639 18.6862 20.4639Z" fill="#999999"/>
<path d="M9.63493 20.4639C8.8416 20.4639 8.21826 19.8264 8.21826 19.0473C8.21826 18.2681 8.85576 17.6306 9.63493 17.6306C10.4141 17.6306 11.0516 18.2681 11.0516 19.0473C11.0516 19.8264 10.4141 20.4639 9.63493 20.4639Z" fill="#999999"/>
<path d="M25.4125 23.439C25.1292 23.439 24.8459 23.3257 24.6475 23.1132C24.4209 22.8865 24.3217 22.5607 24.3642 22.249C24.4067 21.9515 24.4209 21.6398 24.4209 21.314V15.6473C24.4209 11.6948 22.6501 9.92399 18.6976 9.92399H9.63086C9.30503 9.92399 8.9934 9.93816 8.6959 9.96649C8.38423 10.009 8.05838 9.89564 7.83171 9.68314C7.60504 9.45647 7.47753 9.14484 7.50586 8.83317C7.76086 5.77317 9.33336 2.13232 15.2975 2.13232H24.3642C29.4926 2.13232 32.2125 4.85234 32.2125 9.98067V15.6473C32.2125 21.6115 28.5717 23.1698 25.5117 23.439C25.4692 23.439 25.4409 23.439 25.4125 23.439ZM9.8009 7.79899H18.6834C23.8117 7.79899 26.5317 10.519 26.5317 15.6473V21.1298C28.9401 20.5348 30.0734 18.764 30.0734 15.6473V9.98067C30.0734 6.02817 28.3025 4.25732 24.35 4.25732H15.2834C12.1667 4.25732 10.4101 5.39066 9.8009 7.79899Z" fill="#999999"/>
</svg>
