<svg width="34" height="34" viewBox="0 0 34 34" fill="none" xmlns="http://www.w3.org/2000/svg">
<path d="M17 22.3125C14.0675 22.3125 11.6875 19.9325 11.6875 17C11.6875 14.0675 14.0675 11.6875 17 11.6875C19.9325 11.6875 22.3125 14.0675 22.3125 17C22.3125 19.9325 19.9325 22.3125 17 22.3125ZM17 13.8125C15.2433 13.8125 13.8125 15.2433 13.8125 17C13.8125 18.7567 15.2433 20.1875 17 20.1875C18.7567 20.1875 20.1875 18.7567 20.1875 17C20.1875 15.2433 18.7567 13.8125 17 13.8125Z" fill="#999999"/>
<path d="M21.5477 31.4359C21.2502 31.4359 20.9527 31.3934 20.6552 31.3226C19.7768 31.0817 19.0402 30.5292 18.5727 29.7501L18.4027 29.4667C17.5668 28.0217 16.4193 28.0217 15.5835 29.4667L15.4277 29.7359C14.9602 30.5292 14.2235 31.0959 13.3452 31.3226C12.4527 31.5634 11.5318 31.4359 10.7527 30.9684L8.316 29.5659C7.45183 29.0701 6.8285 28.2626 6.55933 27.2851C6.30433 26.3076 6.43183 25.3017 6.92766 24.4376C7.3385 23.7151 7.45183 23.0634 7.211 22.6526C6.97016 22.2417 6.361 22.0009 5.52516 22.0009C3.45683 22.0009 1.771 20.3151 1.771 18.2467V15.7534C1.771 13.6851 3.45683 11.9992 5.52516 11.9992C6.361 11.9992 6.97016 11.7584 7.211 11.3476C7.45183 10.9367 7.35266 10.2851 6.92766 9.56258C6.43183 8.69841 6.30433 7.67841 6.55933 6.71508C6.81433 5.73758 7.43766 4.93008 8.316 4.43425L10.7668 3.03175C12.3677 2.08258 14.4785 2.63508 15.4418 4.26425L15.6118 4.54758C16.4477 5.99258 17.5952 5.99258 18.431 4.54758L18.5868 4.27841C19.5502 2.63508 21.661 2.08258 23.276 3.04591L25.7127 4.44841C26.5768 4.94425 27.2002 5.75175 27.4693 6.72925C27.7243 7.70675 27.5968 8.71258 27.101 9.57675C26.6902 10.2992 26.5768 10.9509 26.8177 11.3617C27.0585 11.7726 27.6677 12.0134 28.5035 12.0134C30.5718 12.0134 32.2577 13.6992 32.2577 15.7676V18.2609C32.2577 20.3292 30.5718 22.0151 28.5035 22.0151C27.6677 22.0151 27.0585 22.2559 26.8177 22.6667C26.5768 23.0776 26.676 23.7292 27.101 24.4517C27.5968 25.3159 27.7385 26.3359 27.4693 27.2992C27.2143 28.2767 26.591 29.0842 25.7127 29.5801L23.2618 30.9826C22.7235 31.2801 22.1427 31.4359 21.5477 31.4359ZM17.0002 26.1942C18.261 26.1942 19.4368 26.9876 20.2443 28.3901L20.4002 28.6592C20.5702 28.9567 20.8535 29.1692 21.1935 29.2542C21.5335 29.3392 21.8735 29.2967 22.1568 29.1267L24.6077 27.7101C24.976 27.4976 25.2593 27.1434 25.3727 26.7184C25.486 26.2934 25.4293 25.8542 25.2168 25.4859C24.4093 24.0976 24.3102 22.6667 24.9335 21.5759C25.5568 20.4851 26.846 19.8617 28.461 19.8617C29.3677 19.8617 30.0902 19.1392 30.0902 18.2326V15.7392C30.0902 14.8467 29.3677 14.1101 28.461 14.1101C26.846 14.1101 25.5568 13.4867 24.9335 12.3959C24.3102 11.3051 24.4093 9.87425 25.2168 8.48591C25.4293 8.11758 25.486 7.67841 25.3727 7.25341C25.2593 6.82841 24.9902 6.48841 24.6218 6.26175L22.171 4.85925C21.5618 4.49091 20.7543 4.70341 20.386 5.32675L20.2302 5.59591C19.4227 6.99841 18.2468 7.79175 16.986 7.79175C15.7252 7.79175 14.5493 6.99841 13.7418 5.59591L13.586 5.31258C13.2318 4.71758 12.4385 4.50508 11.8293 4.85925L9.3785 6.27591C9.01016 6.48841 8.72683 6.84258 8.6135 7.26758C8.50016 7.69258 8.55683 8.13175 8.76933 8.50008C9.57683 9.88841 9.676 11.3192 9.05266 12.4101C8.42933 13.5009 7.14016 14.1242 5.52516 14.1242C4.6185 14.1242 3.896 14.8467 3.896 15.7534V18.2467C3.896 19.1392 4.6185 19.8759 5.52516 19.8759C7.14016 19.8759 8.42933 20.4992 9.05266 21.5901C9.676 22.6809 9.57683 24.1117 8.76933 25.5001C8.55683 25.8684 8.50016 26.3076 8.6135 26.7326C8.72683 27.1576 8.996 27.4976 9.36433 27.7242L11.8152 29.1267C12.1127 29.3109 12.4668 29.3534 12.7927 29.2684C13.1327 29.1834 13.416 28.9567 13.6002 28.6592L13.756 28.3901C14.5635 27.0017 15.7393 26.1942 17.0002 26.1942Z" fill="#999999"/>
</svg>
