<svg width="157" height="40" viewBox="0 0 157 40" fill="none" xmlns="http://www.w3.org/2000/svg">
<g clip-path="url(#clip0_1_42692)">
<path d="M21.8131 18.0328C18.2526 20.5283 14.692 23.0239 11.1382 25.5195C14.3254 22.7118 17.5127 19.9041 20.7 17.0896C19.4002 15.9769 18.0937 14.8709 16.794 13.7581C31.2257 21.6978 45.6507 29.6307 60.0824 37.5704C55.1515 25.5761 50.214 13.5751 45.2832 1.57409C40.8425 4.68679 36.4086 7.79271 31.9679 10.9054C35.9536 15.5258 39.946 20.1462 43.9317 24.7666C34.2533 17.0314 24.5816 9.30297 14.9032 1.56778C9.96068 13.5667 5.02485 25.5657 0.0823589 37.5647C9.09673 32.5536 18.1044 27.556 27.1188 22.5449C25.3525 21.0386 23.5861 19.5391 21.8131 18.0328Z" fill="#D20C34"/>
</g>
<path fill-rule="evenodd" clip-rule="evenodd" d="M134.05 30.3813L130.646 30.3732L130.697 8.83507L134.101 8.84311L134.05 30.3813ZM92.2549 8.74461L96.0742 8.75364L96.0233 30.2918L92.4531 30.2833L92.4893 14.9456L85.5715 26.1063L78.7065 14.913L78.6703 30.2508L75.1 30.2424L75.1509 8.70421L79.0532 8.71343L85.6701 19.4982L92.2549 8.74461ZM112.653 17.1156L112.658 14.9128L116.062 14.9208L116.026 30.2586L112.622 30.2506L112.627 28.0478C111.378 29.7581 109.549 30.6512 107.141 30.6455C104.982 30.6404 103.158 29.8203 101.667 28.2667C100.176 26.713 99.3502 24.7531 99.3554 22.5503C99.3606 20.3475 100.112 18.3913 101.694 16.8449C103.192 15.2983 105.02 14.4868 107.179 14.4919C109.587 14.5792 111.329 15.3992 112.653 17.1156ZM104.163 26.1514C105.074 27.0509 106.318 27.5434 107.73 27.5467C109.141 27.5501 110.305 27.0633 111.303 26.1682C112.219 25.1914 112.72 24.0504 112.723 22.6635C112.726 21.2765 112.231 20.0516 111.32 19.152C110.409 18.1708 109.164 17.76 107.753 17.7567C106.341 17.7533 105.178 18.2401 104.179 19.1351C103.264 20.0304 102.763 21.253 102.759 22.6399C102.756 24.0268 103.169 25.17 104.163 26.1514ZM122.868 17.6284L122.874 15.0177L119.47 15.0097L119.434 30.3475L122.838 30.3555L122.856 22.605C122.86 21.0549 123.278 19.9137 124.276 19.2634C125.274 18.6131 126.437 18.2895 127.682 18.3741L127.691 14.7844C125.366 14.7789 123.703 15.754 122.868 17.6284ZM139.614 28.4371C141.271 29.9911 143.179 30.8114 145.503 30.8169C147.828 30.8224 149.74 30.0111 151.321 28.4647C152.902 26.9184 153.737 24.9623 153.742 22.7595C153.748 20.5568 152.922 18.5968 151.348 17.043C149.774 15.4892 147.866 14.6688 145.542 14.6633C143.217 14.6578 141.222 15.469 139.641 17.0153C138.06 18.5617 137.225 20.5178 137.22 22.7205C137.214 24.9233 138.04 26.8833 139.614 28.4371ZM142.027 26.24C141.116 25.2588 140.621 24.1155 140.624 22.7286C140.627 21.3416 141.045 20.2004 142.044 19.2238C142.959 18.3285 144.123 17.8418 145.534 17.8451C146.946 17.8484 148.107 18.3407 149.018 19.2403C149.929 20.2214 150.425 21.3648 150.421 22.7517C150.418 24.2202 149.917 25.3612 149.001 26.2565C148.086 27.1517 146.922 27.6385 145.511 27.6352C144.1 27.6318 142.938 27.1396 142.027 26.24Z" fill="#E6E6E6"/>
<defs>
<clipPath id="clip0_1_42692">
<rect width="60" height="36" fill="white" transform="translate(0.0898438 1.5647)"/>
</clipPath>
</defs>
</svg>
