<svg width="24" height="24" viewBox="0 0 24 24" fill="none" xmlns="http://www.w3.org/2000/svg">
<path d="M12.0006 18.0066C10.8142 18.0066 9.65442 17.6551 8.66794 16.9965C7.68147 16.338 6.9126 15.402 6.45858 14.3068C6.00455 13.2117 5.88576 12.0067 6.11722 10.8441C6.34868 9.68149 6.92 8.61359 7.75893 7.77541C8.59785 6.93724 9.66672 6.36643 10.8303 6.13518C11.994 5.90393 13.2001 6.02262 14.2962 6.47623C15.3923 6.92985 16.3292 7.69803 16.9883 8.68362C17.6475 9.66921 17.9993 10.8279 17.9993 12.0133C17.9993 13.6028 17.3673 15.1272 16.2423 16.2512C15.1174 17.3752 13.5916 18.0066 12.0006 18.0066ZM12.0006 7.73239C11.1532 7.73239 10.3248 7.98346 9.62014 8.45385C8.91551 8.92425 8.36632 9.59284 8.04202 10.3751C7.71772 11.1573 7.63286 12.0181 7.79819 12.8485C7.96352 13.6789 8.3716 14.4417 8.97084 15.0404C9.57008 15.6391 10.3335 16.0468 11.1647 16.212C11.9959 16.3771 12.8574 16.2924 13.6403 15.9684C14.4233 15.6443 15.0925 15.0957 15.5633 14.3917C16.0341 13.6877 16.2854 12.86 16.2854 12.0133C16.2854 10.8779 15.834 9.78907 15.0304 8.98624C14.2269 8.18341 13.137 7.73239 12.0006 7.73239Z" fill="#999999"/>
<path d="M12.0014 23.9999C9.12945 24.0123 6.34931 22.9898 4.17086 21.12C1.99242 19.2501 0.561716 16.6583 0.141154 13.8199C-0.133885 12.0443 -0.00590859 10.2297 0.515618 8.5103C1.03715 6.79085 1.93888 5.21052 3.15414 3.88621C4.36939 2.56189 5.86707 1.52745 7.53642 0.859407C9.20577 0.191361 11.0041 -0.0932081 12.7983 0.0267471C15.8796 0.27419 18.7513 1.68312 20.8312 3.96784C22.9111 6.25255 24.0435 9.24204 23.9987 12.3301V14.5819C23.9987 17.0134 22.3448 18.8628 20.1424 18.8628C19.1204 18.8605 18.1408 18.4539 17.4181 17.7318C16.6954 17.0098 16.2884 16.0311 16.2861 15.01V12.0133C16.2861 11.7862 16.3764 11.5685 16.5371 11.4079C16.6979 11.2473 16.9158 11.1571 17.1431 11.1571C17.3704 11.1571 17.5883 11.2473 17.7491 11.4079C17.9098 11.5685 18.0001 11.7862 18.0001 12.0133V15.01C17.9989 15.2914 18.0536 15.5702 18.1608 15.8304C18.2681 16.0906 18.4258 16.327 18.625 16.526C18.8242 16.725 19.0608 16.8826 19.3212 16.9898C19.5817 17.097 19.8608 17.1516 20.1424 17.1504C21.4279 17.1504 22.2848 16.0973 22.2848 14.5819V12.3301C22.3287 9.67753 21.3615 7.1075 19.5793 5.14089C17.7971 3.17428 15.3332 1.9582 12.6869 1.73911C11.1473 1.63465 9.60396 1.87771 8.17118 2.45028C6.7384 3.02284 5.45296 3.91023 4.41015 5.04668C3.36734 6.18312 2.59389 7.53948 2.14713 9.01521C1.70037 10.4909 1.59176 12.0482 1.82935 13.5716C2.07619 15.1872 2.70525 16.7207 3.66428 18.0447C4.62331 19.3687 5.88464 20.445 7.34354 21.1843C8.80244 21.9235 10.4168 22.3044 12.0526 22.2953C13.6884 22.2861 15.2984 21.8872 16.7489 21.1317C16.8492 21.0701 16.9611 21.0297 17.0777 21.0133C17.1942 20.9968 17.313 21.0045 17.4264 21.0358C17.5399 21.0672 17.6457 21.1216 17.7371 21.1957C17.8286 21.2697 17.9039 21.3618 17.9582 21.4661C18.0125 21.5705 18.0447 21.6849 18.0527 21.8023C18.0608 21.9196 18.0446 22.0374 18.0051 22.1482C17.9656 22.259 17.9037 22.3605 17.8232 22.4463C17.7427 22.5322 17.6454 22.6005 17.5373 22.6471C15.8275 23.5357 13.9287 23.9998 12.0014 23.9999Z" fill="#999999"/>
</svg>
